<?xml version="1.0" standalone="no"?><!-- Generator: Adobe Fireworks CS6, Export SVG Extension by Aaron Beall (http://fireworks.abeall.com) . Version: 0.6.1  --><!DOCTYPE svg PUBLIC "-//W3C//DTD SVG 1.1//EN" "http://www.w3.org/Graphics/SVG/1.1/DTD/svg11.dtd"><svg id="icons-Page%201" viewBox="0 0 1000 500" style="background-color:#ffffff00" version="1.1"	xmlns="http://www.w3.org/2000/svg" xmlns:xlink="http://www.w3.org/1999/xlink" xml:space="preserve"	x="0px" y="0px" width="1000px" height="500px">	<g id="Layer%201">		<g>			<g>				<g>					<rect x="0" y="0" width="13" height="6" fill="#494c51"/>				</g>				<g>					<rect x="0" y="7" width="6" height="13" fill="#c65032"/>				</g>				<g>					<rect x="14" y="0" width="6" height="13" fill="#c65032"/>				</g>				<g>					<path d="M 7 14 L 20 14 L 20 20 L 7 20 L 7 14 Z" fill="#494c51"/>				</g>				<g>					<rect x="7" y="7" width="6" height="6" fill="#d6c591"/>				</g>			</g>		</g>		<g>			<rect x="72" y="83" width="78" height="36" fill="#d47c65"/>			<path d="M 150 119 L 131.9626 101 L 90.0375 101 L 72 83 L 150 83 L 150 119 Z" stroke="#ffffff00" stroke-width="2" fill="#db927f"/>			<rect x="113" y="0" width="36" height="77" fill="#d47c65"/>			<path d="M 113 0 L 131.0001 17.8062 L 131.0001 59.1938 L 149 77 L 149 0 L 113 0 Z" stroke="#ffffff00" stroke-width="2" fill="#db927f"/>			<rect x="30" y="42" width="36" height="77" fill="#d47c65"/>			<path d="M 30 42 L 48 59.8062 L 48 101.1937 L 66 119 L 66 42 L 30 42 Z" stroke="#ffffff00" stroke-width="2" fill="#db927f"/>			<rect x="30" y="0" width="78" height="36" fill="#d47c65"/>			<path d="M 108 36 L 89.9625 18 L 48.0375 18 L 30 0 L 108 0 L 108 36 Z" stroke="#ffffff00" stroke-width="2" fill="#db927f"/>			<rect x="72" y="42" width="36" height="36" fill="#d47c65"/>			<path d="M 108 78 L 72 42 L 108 42 L 108 78 Z" stroke="#ffffff00" stroke-width="2" fill="#db927f"/>		</g>		<path d="M 0 30 L 15 30 L 15 33 L 0 33 L 0 30 Z" fill="#999999"/>		<path d="M 0 35 L 15 35 L 15 38 L 0 38 L 0 35 Z" fill="#999999"/>		<path d="M 0 40 L 15 40 L 15 43 L 0 43 L 0 40 Z" fill="#999999"/>	</g></svg>