<?xml version="1.0" standalone="no"?><!-- Generator: Adobe Fireworks CS6, Export SVG Extension by Aaron Beall (http://fireworks.abeall.com) . Version: 0.6.1  --><!DOCTYPE svg PUBLIC "-//W3C//DTD SVG 1.1//EN" "http://www.w3.org/Graphics/SVG/1.1/DTD/svg11.dtd"><svg id="logo.fw-Page%201" viewBox="0 0 200 200" style="background-color:#ffffff00" version="1.1"	xmlns="http://www.w3.org/2000/svg" xmlns:xlink="http://www.w3.org/1999/xlink" xml:space="preserve"	x="0px" y="0px" width="200px" height="200px">	<g id="Layer%201">		<g>			<g>				<g>					<rect x="0" y="0" width="130" height="60" fill="#494c51"/>					<path opacity="0.251" d="M 0 0 L 30.0625 30 L 99.9375 30 L 130 60 L 0 60 L 0 0 Z" stroke="#ffffff00" stroke-width="1" fill="#222222"/>				</g>				<g>					<rect x="0" y="70" width="60" height="130" fill="#c65032"/>					<path opacity="0.251" d="M 60 200 L 30 169.9375 L 30 100.0625 L 0 70 L 0 200 L 60 200 Z" stroke="#ffffff00" stroke-width="1" fill="#222222"/>				</g>				<g>					<rect x="140" y="0" width="60" height="130" fill="#c65032"/>					<path opacity="0.251" d="M 200 130 L 170 100.167 L 170 30.8254 L 140 0.9924 L 140 130 L 200 130 Z" stroke="#ffffff00" stroke-width="1" fill="#222222"/>				</g>				<g>					<rect x="70" y="140" width="130" height="60" fill="#494c51"/>					<path opacity="0.251" d="M 70 140 L 100.0625 170 L 169.9375 170 L 200 200 L 70 200 L 70 140 Z" stroke="#ffffff00" stroke-width="1" fill="#222222"/>				</g>				<g>					<rect x="70" y="70" width="60" height="60" fill="#d6c591"/>					<path opacity="0.251" d="M 70 70 L 130 130 L 70 130 L 70 70 Z" stroke="#ffffff00" stroke-width="1" fill="#222222"/>				</g>			</g>		</g>	</g></svg>